<svg id="Layer_1" data-name="Layer 1" xmlns="http://www.w3.org/2000/svg" viewBox="0 0 500 500"><defs><style>.cls-1{fill:#1c5f67;}.cls-2{fill:#e2981f;}</style></defs><path class="cls-1" d="M299,224.07a25,25,0,0,1-22.13-21H232.55a69,69,0,0,0,68.89,65.21c.85,0,10.2,0,11.05-.06V224.06C310.86,224.22,300.67,224.23,299,224.07Z"/><path class="cls-1" d="M232.28,249.82v49.84h44.43V249.82S261,247.57,254.49,237C248.17,246.57,232.28,249.82,232.28,249.82Z"/><circle class="cls-1" cx="308.5" cy="95.33" r="26.5"/><circle class="cls-1" cx="195" cy="95.33" r="26.5"/><path class="cls-1" d="M157.12,325.24a11.43,11.43,0,0,1,9.21,4.17,14,14,0,0,1,3.14,9.13,13,13,0,0,1-3.14,8.9,12,12,0,0,1-9.56,4h-10v14.84h-8.62v-41ZM155,344.42a7.27,7.27,0,0,0,5.27-1.94,5.59,5.59,0,0,0,1.78-4.17,5.52,5.52,0,0,0-1.78-4.11,7.44,7.44,0,0,0-5.27-1.82h-8.19v12Z"/><path class="cls-1" d="M179.4,366.28h-8.05v-41h8.05Z"/><path class="cls-1" d="M210.05,366.28h-7.59v-2.69a8,8,0,0,0-.06-1.59s0,.05-.06.05a10,10,0,0,1-9.24,5.14,9.78,9.78,0,0,1-7.14-2.8c-2.17-2.05-3.25-4.89-3.25-8.5v-20h8v18.83q0,5.65,5.13,5.65a5.67,5.67,0,0,0,4.63-1.94,7.57,7.57,0,0,0,1.59-5V335.86h7.94Z"/><path class="cls-1" d="M240.24,356.57a9.89,9.89,0,0,1-1.6,5.65q-3.42,5-11.87,5a17.93,17.93,0,0,1-9.87-2.63,9.24,9.24,0,0,1-4.63-8h8.28a3.93,3.93,0,0,0,1.94,3.49,7.76,7.76,0,0,0,4.22,1.08,7.91,7.91,0,0,0,3.85-.88,2.62,2.62,0,0,0,1.63-2.32q0-1.87-4.85-3a56.45,56.45,0,0,1-9.07-2.57q-4.86-2.34-4.86-7.19a10.18,10.18,0,0,1,1.37-5.2,9.44,9.44,0,0,1,4.63-3.73,17.46,17.46,0,0,1,7-1.4,14.61,14.61,0,0,1,8.61,2.45,9.6,9.6,0,0,1,4.29,7.76h-7.94q-.63-4.05-5.36-4.05a6.42,6.42,0,0,0-3.37.86,2.5,2.5,0,0,0-1.43,2.17q0,1.71,4.91,2.79a55.59,55.59,0,0,1,9.19,2.57Q240.24,351.84,240.24,356.57Z"/><path class="cls-1" d="M282.3,366.28h-8.05V338.2l-7.7,28.08H258.1l-7.59-28v28h-8v-41h12.62l7.36,30.08h.11l7.36-30.08H282.3Z"/><path class="cls-1" d="M313.51,353.21H292.57A8.71,8.71,0,0,0,295,359a6.26,6.26,0,0,0,4.45,1.71,6.7,6.7,0,0,0,3.48-.91,4.22,4.22,0,0,0,2-2.46h8.21a13,13,0,0,1-4.9,7.17,14,14,0,0,1-8.39,2.54q-15.24,0-15.24-16.61,0-7,3.85-11.22t10.82-4.19Q313.52,335.06,313.51,353.21Zm-8.21-5.08a7.42,7.42,0,0,0-2.09-4.81,5.75,5.75,0,0,0-4.13-1.75,5.36,5.36,0,0,0-3.94,1.64,8.17,8.17,0,0,0-2.28,4.92Z"/><path class="cls-1" d="M343.42,353.21H322.47a8.71,8.71,0,0,0,2.4,5.82,6.27,6.27,0,0,0,4.45,1.71,6.65,6.65,0,0,0,3.48-.91,4.18,4.18,0,0,0,2-2.46H343a13.06,13.06,0,0,1-4.91,7.17,14,14,0,0,1-8.39,2.54q-15.24,0-15.24-16.61,0-7,3.85-11.22t10.82-4.19Q343.42,335.06,343.42,353.21Zm-8.22-5.08a7.41,7.41,0,0,0-2.08-4.81,5.76,5.76,0,0,0-4.14-1.75,5.38,5.38,0,0,0-3.94,1.64,8.17,8.17,0,0,0-2.28,4.92Z"/><path class="cls-1" d="M369.9,350.81a38.86,38.86,0,0,1-.46,6.91,12.17,12.17,0,0,1-2.68,6.16q-3.25,3.54-9.13,3.54a14.23,14.23,0,0,1-6.62-1.54,10,10,0,0,1-4.63-4.74,15.78,15.78,0,0,1-1.19-6.22V327.7h8v8.16H369.9v5.76H353.23v12.5a13.62,13.62,0,0,0,.35,3.54q.78,2.74,4.19,2.74a3.9,3.9,0,0,0,3.06-1.2c1.06-1.14,1.59-3.6,1.59-7.36V346.3h7.48Z"/><path class="cls-2" d="M147.28,396.91h5.79v8.3h0a4,4,0,0,0,1.21,2.47,3.88,3.88,0,0,0,2.81,1.16h.51v5.81h-.51a9.71,9.71,0,0,1-4.23-1,3.23,3.23,0,0,1-.12.47v-.05a9.84,9.84,0,0,1-9.46,7.19h-5.36l2.56-5.81h2.8a3.88,3.88,0,0,0,2.81-1.16,3.82,3.82,0,0,0,1.18-2.79Z"/><path class="cls-2" d="M165.45,414.65h-8.62v-5.81h8.62Z"/><path class="cls-2" d="M173,414.65h-8.61v-5.81H173Z"/><path class="cls-2" d="M180.52,414.65h-8.61v-5.81h8.61Z"/><path class="cls-2" d="M188.06,414.65h-8.62v-5.81h8.62Z"/><path class="cls-2" d="M195.6,414.65H187v-5.81h8.62Z"/><path class="cls-2" d="M203.13,414.65h-8.61v-5.81h8.61Z"/><path class="cls-2" d="M212.94,389.8v5.81H201.7l2.56-5.81Zm-5.88,7.09h5.82v8.19a3.81,3.81,0,0,0,3.77,3.76h1.25v5.81h-1.25a9.28,9.28,0,0,1-6.68-2.72,9.2,9.2,0,0,1-6.67,2.72h-1.06v-5.81h1.06a3.79,3.79,0,0,0,3.76-3.76Z"/><path class="cls-2" d="M240,405.57a3.65,3.65,0,0,0,1.11,2.16,3.61,3.61,0,0,0,2.65,1.11H245v5.81h-1.25a9.29,9.29,0,0,1-6.69-2.72,9.13,9.13,0,0,1-2.7,1.85,9.69,9.69,0,0,1-3.48.87H216.11v-5.81h1.65c0-.21-.08-.41-.1-.62a6.59,6.59,0,0,1-.08-1.11,7.29,7.29,0,0,1,.59-2.89,7.52,7.52,0,0,1,1.65-2.39,7.63,7.63,0,0,1,.59-.53H218l2.56-5.78h10.36a9.19,9.19,0,0,1,3.43.87,10.27,10.27,0,0,1,2.86,1.95,9.89,9.89,0,0,1,2,3.05,9.15,9.15,0,0,1,.74,3.69C240,405.24,240,405.4,240,405.57Zm-16.92,1.54a2.11,2.11,0,0,0,.65,1.51,2.37,2.37,0,0,0,.66.46,2.13,2.13,0,0,0,.86.17,1.84,1.84,0,0,0,.77-.17,3.19,3.19,0,0,0,.71-.46,2,2,0,0,0,.57-1.51,2.46,2.46,0,0,0-.14-.81,1.31,1.31,0,0,0-.43-.62,2,2,0,0,0-1.48-.64,1.9,1.9,0,0,0-1.52.64,1.55,1.55,0,0,0-.47.62A1.91,1.91,0,0,0,223.05,407.11Zm6.3-6.22a3.77,3.77,0,0,1,.62.42,5.56,5.56,0,0,1,.56.52,7.49,7.49,0,0,1,1.64,2.39,7.13,7.13,0,0,1,.6,2.89,5.8,5.8,0,0,1,0,.74l-.09.68a2.36,2.36,0,0,0,.33-.24,2.82,2.82,0,0,1,.3-.25,4,4,0,0,0,.9-1.31,4.29,4.29,0,0,0,.31-1.65,4.19,4.19,0,0,0-.31-1.63,3.78,3.78,0,0,0-.9-1.31,4.57,4.57,0,0,0-1.36-.89,4.06,4.06,0,0,0-1.63-.33h-.84S229.41,400.89,229.35,400.89Z"/><path class="cls-2" d="M256.27,405.08a9.63,9.63,0,0,1-9.58,9.57h-2.41v-5.81h2.41a3.67,3.67,0,0,0,2.66-1.11,3.63,3.63,0,0,0,1.11-2.65v-8.19h5.81Zm-4.61,17.43h-5.78v-5.79h5.78Z"/><path class="cls-2" d="M266.72,406.36a4.87,4.87,0,0,0-2,1.47A4.07,4.07,0,0,0,264,410h3v4.65h-5.66v-4.41a6.52,6.52,0,0,1,.29-1.89,7.84,7.84,0,0,1,.82-1.79,7.18,7.18,0,0,1,1.31-1.51,6.67,6.67,0,0,1,1.77-1.1Z"/><path class="cls-2" d="M294.29,406.41a3.6,3.6,0,0,0,.88,1.32,3.64,3.64,0,0,0,2.65,1.11h1.25v5.81h-1.25a9.32,9.32,0,0,1-6.53-2.56,9.22,9.22,0,0,1-6.51,2.56h-.48a9.76,9.76,0,0,1-9-7.78,5,5,0,0,0-.57.48,3.75,3.75,0,0,0-1.18,2.79v11.14h-5.79V410.14a9.56,9.56,0,0,1,2.87-6.91,9.38,9.38,0,0,1,5.69-2.78,9.76,9.76,0,0,1,1.64-2.14,9.29,9.29,0,0,1,6.55-2.82h.27a9.63,9.63,0,0,1,9.59,9.57v.05A10.93,10.93,0,0,1,294.29,406.41Zm-9.71,2.43h.2a3.67,3.67,0,0,0,2.67-1.11,3.62,3.62,0,0,0,1.11-2.62v-.05a3.63,3.63,0,0,0-1.11-2.65,3.67,3.67,0,0,0-2.67-1.11h-.19a3.69,3.69,0,0,0-2.35,1.11,3.64,3.64,0,0,0-1.1,2.67,3.58,3.58,0,0,0,1.11,2.65A3.64,3.64,0,0,0,284.58,408.84Z"/><path class="cls-2" d="M307,414.65h-8.61v-5.81H307Z"/><path class="cls-2" d="M314.49,414.65h-8.62v-5.81h8.62Z"/><path class="cls-2" d="M322,414.65h-8.62v-5.81H322Z"/><path class="cls-2" d="M335.89,395.52a9.19,9.19,0,0,1,3.43.87,10.27,10.27,0,0,1,2.86,1.95,9.89,9.89,0,0,1,2,3.05,9.53,9.53,0,0,1,0,7.41,9.41,9.41,0,0,1-2.06,3,9.67,9.67,0,0,1-6.3,2.82H321.09v-5.81h1.65c0-.21-.08-.41-.1-.62a6.59,6.59,0,0,1-.08-1.11,7.12,7.12,0,0,1,.59-2.89,7.65,7.65,0,0,1,1.64-2.39c.19-.18.39-.36.6-.53H323l2.56-5.78ZM328,407.11a1.84,1.84,0,0,0,.18.84,2.1,2.1,0,0,0,.46.67,2.58,2.58,0,0,0,.67.46,2.13,2.13,0,0,0,.86.17,1.84,1.84,0,0,0,.77-.17,3.19,3.19,0,0,0,.71-.46,2,2,0,0,0,.57-1.51,2.46,2.46,0,0,0-.14-.81,1.31,1.31,0,0,0-.43-.62,2,2,0,0,0-1.48-.64,1.94,1.94,0,0,0-1.53.64,1.63,1.63,0,0,0-.46.62A1.77,1.77,0,0,0,328,407.11Zm6.3-6.22a3.77,3.77,0,0,1,.62.42,5.56,5.56,0,0,1,.56.52,7.49,7.49,0,0,1,1.64,2.39,7.13,7.13,0,0,1,.6,2.89,5.8,5.8,0,0,1,0,.74l-.09.68a2.36,2.36,0,0,0,.33-.24,2.82,2.82,0,0,1,.3-.25,4,4,0,0,0,.89-1.31,4.11,4.11,0,0,0,.32-1.65,4,4,0,0,0-.32-1.63,3.76,3.76,0,0,0-.89-1.31,4.57,4.57,0,0,0-1.36-.89,4.06,4.06,0,0,0-1.63-.33h-.84S334.39,400.89,334.33,400.89Z"/><path class="cls-2" d="M346.9,388h5.77V403.9l0,1a4,4,0,0,0,1.16,2.79,3.85,3.85,0,0,0,2.81,1.16H358v5.81h-1.31a9.82,9.82,0,0,1-9.78-9.76Z"/><path class="cls-2" d="M369.2,405.08a9.63,9.63,0,0,1-9.59,9.57H357.2v-5.81h2.41a3.67,3.67,0,0,0,2.67-1.11,3.63,3.63,0,0,0,1.11-2.65v-8.19h5.81Zm-4.61,17.43h-5.78v-5.79h5.78Z"/><path class="cls-2" d="M301.44,130.29a68.73,68.73,0,0,0-46.95,18.46l.18.17a68.73,68.73,0,0,0-48-18.62c-37.92.49-68.08,32.1-68.08,70V313.83h44.1l.1-114.7a24.18,24.18,0,0,1,.86-6.67A24.89,24.89,0,1,1,210,224.07c-1.71.16-11.89.15-13.52,0v44.17c.84,0,10.19.06,11.05.06a69,69,0,0,0,69-69,24.89,24.89,0,0,1,49.78,0l0,32.94h0v81.29l44.09.31V199.29A69,69,0,0,0,301.44,130.29Z"/></svg>