<svg id="Layer_1" data-name="Layer 1" xmlns="http://www.w3.org/2000/svg" viewBox="0 0 500 500"><defs><style>.cls-1{fill:#0d4b56;}.cls-2{fill:#f5a325;}</style></defs><path class="cls-1" d="M333.68,311.6A47,47,0,0,1,292,272.1H208.71A129.83,129.83,0,0,0,338.33,394.81c1.61,0,19.2-.06,20.79-.12V311.58C356.05,311.9,336.89,311.91,333.68,311.6Z"/><path class="cls-1" d="M208.2,360.05v93.78h83.6V360.05s-29.56-4.23-41.8-24.15C238.1,353.93,208.2,360.05,208.2,360.05Z"/><path class="cls-2" d="M338.33,135.16A129.35,129.35,0,0,0,250,169.88l.33.32a129.35,129.35,0,0,0-90.39-35c-71.34.93-128.1,60.4-128.1,131.75V480.49h83L115,264.67a46.12,46.12,0,0,1,1.62-12.54,46.84,46.84,0,1,1,49.69,59.47c-3.21.31-22.37.3-25.44,0v83.11c1.59.06,19.18.12,20.79.12A129.82,129.82,0,0,0,291.49,265a46.84,46.84,0,0,1,93.68,0l0,62h0v153l83,.58V265A129.83,129.83,0,0,0,338.33,135.16Z"/><circle class="cls-1" cx="351.62" cy="69.37" r="49.86"/><circle class="cls-1" cx="138.06" cy="69.37" r="49.86"/></svg>