<svg id="Layer_1" data-name="Layer 1" xmlns="http://www.w3.org/2000/svg" viewBox="0 0 500 199.49"><defs><style>.cls-1{fill:#1c5f67;}.cls-2{fill:#e2981f;}</style></defs><path class="cls-1" d="M157.12,112.16a13.92,13.92,0,0,1-12.32-11.69H120.13a38.43,38.43,0,0,0,38.37,36.32c.47,0,5.68,0,6.15,0V112.16C163.74,112.25,158.07,112.25,157.12,112.16Z"/><path class="cls-1" d="M120,126.5v27.76h24.75V126.5s-8.75-1.25-12.38-7.15C128.83,124.69,120,126.5,120,126.5Z"/><path class="cls-2" d="M158.5,59.94a38.31,38.31,0,0,0-26.15,10.27l.1.1A38.27,38.27,0,0,0,105.7,59.94c-21.12.28-37.92,17.88-37.92,39v63.21H92.35l.05-63.88a13.26,13.26,0,0,1,.48-3.71,13.86,13.86,0,1,1,14.71,17.6c-1,.09-6.63.09-7.53,0v24.59c.47,0,5.67,0,6.15,0a38.43,38.43,0,0,0,38.43-38.43,13.86,13.86,0,0,1,27.72,0v18.35h0V162l24.55.17V98.36A38.42,38.42,0,0,0,158.5,59.94Z"/><circle class="cls-1" cx="162.43" cy="40.47" r="14.76"/><circle class="cls-1" cx="99.22" cy="40.47" r="14.76"/><path class="cls-1" d="M239.49,73.33a10.69,10.69,0,0,1,8.62,3.9,13.06,13.06,0,0,1,2.94,8.55,12.25,12.25,0,0,1-2.94,8.34,11.28,11.28,0,0,1-9,3.74h-9.37v13.89h-8.07V73.33Zm-2,18a6.8,6.8,0,0,0,4.93-1.82,5.21,5.21,0,0,0,1.66-3.9,5.15,5.15,0,0,0-1.66-3.85A6.93,6.93,0,0,0,237.46,80h-7.67V91.29Z"/><path class="cls-1" d="M260.35,111.75h-7.54V73.33h7.54Z"/><path class="cls-1" d="M289,111.75h-7.1v-2.51a7.09,7.09,0,0,0-.06-1.5s0,.06-.05.06a9.38,9.38,0,0,1-8.66,4.81,9.2,9.2,0,0,1-6.68-2.62,10.45,10.45,0,0,1-3-8V83.27H271V100.9c0,3.53,1.61,5.29,4.81,5.29a5.29,5.29,0,0,0,4.33-1.81,7.06,7.06,0,0,0,1.5-4.65V83.27H289Z"/><path class="cls-1" d="M317.31,102.67a9.31,9.31,0,0,1-1.5,5.29q-3.19,4.65-11.11,4.65a16.77,16.77,0,0,1-9.24-2.46,8.63,8.63,0,0,1-4.33-7.48h7.75a3.69,3.69,0,0,0,1.81,3.26,8.25,8.25,0,0,0,7.56.18,2.45,2.45,0,0,0,1.53-2.16c0-1.18-1.52-2.1-4.55-2.78a52.29,52.29,0,0,1-8.49-2.4q-4.55-2.19-4.54-6.74a9.39,9.39,0,0,1,1.28-4.86,8.79,8.79,0,0,1,4.33-3.5,16.5,16.5,0,0,1,6.57-1.31,13.7,13.7,0,0,1,8.07,2.3,8.94,8.94,0,0,1,4,7.27H309c-.4-2.53-2.07-3.8-5-3.8a6,6,0,0,0-3.15.8,2.35,2.35,0,0,0-1.33,2c0,1.07,1.53,2,4.59,2.62a51.62,51.62,0,0,1,8.6,2.41Q317.31,98.23,317.31,102.67Z"/><path class="cls-1" d="M356.69,111.75h-7.53V85.46l-7.22,26.29H334l-7.1-26.18v26.18h-7.54V73.33H331.2l6.89,28.16h.11l6.89-28.16h11.6Z"/><path class="cls-1" d="M385.92,99.51H366.31a8.14,8.14,0,0,0,2.24,5.45,5.87,5.87,0,0,0,4.17,1.61,6.27,6.27,0,0,0,3.26-.86,4,4,0,0,0,1.87-2.29h7.69a12.18,12.18,0,0,1-4.59,6.7,13.1,13.1,0,0,1-7.86,2.38q-14.26,0-14.26-15.55,0-6.57,3.6-10.5t10.13-3.93Q385.91,82.52,385.92,99.51Zm-7.7-4.75a6.9,6.9,0,0,0-2-4.5,5.36,5.36,0,0,0-3.87-1.65,5.09,5.09,0,0,0-3.69,1.54,7.66,7.66,0,0,0-2.13,4.61Z"/><path class="cls-1" d="M413.92,99.51H394.31a8.09,8.09,0,0,0,2.24,5.45,5.87,5.87,0,0,0,4.17,1.61,6.27,6.27,0,0,0,3.26-.86,4,4,0,0,0,1.87-2.29h7.69a12.18,12.18,0,0,1-4.59,6.7,13.1,13.1,0,0,1-7.86,2.38q-14.26,0-14.26-15.55,0-6.57,3.6-10.5t10.13-3.93Q413.91,82.52,413.92,99.51Zm-7.7-4.75a7,7,0,0,0-2-4.5,5.36,5.36,0,0,0-3.87-1.65,5.07,5.07,0,0,0-3.69,1.54,7.73,7.73,0,0,0-2.14,4.61Z"/><path class="cls-1" d="M438.71,97.27a36.5,36.5,0,0,1-.43,6.47,11.39,11.39,0,0,1-2.51,5.77q-3,3.31-8.55,3.31a13.27,13.27,0,0,1-6.2-1.44,9.35,9.35,0,0,1-4.33-4.44,14.77,14.77,0,0,1-1.12-5.82V75.63h7.54v7.64h15.6v5.4h-15.6v11.7a12.58,12.58,0,0,0,.32,3.31q.74,2.56,3.93,2.57a3.68,3.68,0,0,0,2.86-1.12q1.48-1.6,1.49-6.9V93.05h7Z"/><path class="cls-2" d="M230.27,140.43h5.43v7.78h0a3.75,3.75,0,0,0,1.14,2.3,3.6,3.6,0,0,0,2.62,1.09H240V157h-.48a9,9,0,0,1-3.95-.91c0,.15-.07.29-.11.43l0-.05a9.19,9.19,0,0,1-8.85,6.74h-5l2.4-5.44h2.62a3.6,3.6,0,0,0,2.63-1.09,3.54,3.54,0,0,0,1.1-2.61Z"/><path class="cls-2" d="M247.28,157h-8.06V151.6h8.06Z"/><path class="cls-2" d="M254.34,157h-8.06V151.6h8.06Z"/><path class="cls-2" d="M261.4,157h-8.07V151.6h8.07Z"/><path class="cls-2" d="M268.46,157h-8.07V151.6h8.07Z"/><path class="cls-2" d="M275.51,157h-8.06V151.6h8.06Z"/><path class="cls-2" d="M282.57,157H274.5V151.6h8.07Z"/><path class="cls-2" d="M291.76,133.77v5.44H281.23l2.4-5.44Zm-5.51,6.65h5.44v7.66a3.34,3.34,0,0,0,1.06,2.48,3.39,3.39,0,0,0,2.48,1h1.17V157h-1.17A8.71,8.71,0,0,1,289,154.5a8.61,8.61,0,0,1-6.24,2.54h-1V151.6h1a3.55,3.55,0,0,0,3.52-3.52Z"/><path class="cls-2" d="M317.06,148.54a3.63,3.63,0,0,0,3.52,3.06h1.17V157h-1.17a8.71,8.71,0,0,1-6.26-2.54,8.8,8.8,0,0,1-2.53,1.73,8.94,8.94,0,0,1-3.26.81H294.72V151.6h1.55a5.4,5.4,0,0,1-.1-.58,6.86,6.86,0,0,1-.08-1,6.73,6.73,0,0,1,.56-2.7,7.28,7.28,0,0,1,1.54-2.24,6.85,6.85,0,0,1,.56-.5h-2.27l2.4-5.41h9.7a8.83,8.83,0,0,1,3.21.81,9.54,9.54,0,0,1,2.67,1.84,9.19,9.19,0,0,1,1.92,2.84,8.72,8.72,0,0,1,.69,3.46C317.07,148.23,317.07,148.38,317.06,148.54ZM301.21,150a1.93,1.93,0,0,0,.17.79,2,2,0,0,0,.44.62,2.16,2.16,0,0,0,.63.44,2,2,0,0,0,.8.16,1.76,1.76,0,0,0,.72-.16,3.09,3.09,0,0,0,.67-.44,1.91,1.91,0,0,0,.53-1.41,2.43,2.43,0,0,0-.13-.76,1.34,1.34,0,0,0-.4-.58,2,2,0,0,0-1.39-.59,1.83,1.83,0,0,0-1.43.59,1.62,1.62,0,0,0-.44.58A1.83,1.83,0,0,0,301.21,150Zm5.91-5.82a5.9,5.9,0,0,1,.58.39,6.11,6.11,0,0,1,.52.49,7.11,7.11,0,0,1,1.54,2.24,6.73,6.73,0,0,1,.56,2.7,4.93,4.93,0,0,1,0,.69l-.09.64a1.66,1.66,0,0,0,.31-.22,3.48,3.48,0,0,1,.28-.24,3.34,3.34,0,0,0,.84-1.22,4,4,0,0,0,.3-1.55,3.94,3.94,0,0,0-.3-1.53,3.34,3.34,0,0,0-.84-1.22,4.17,4.17,0,0,0-1.27-.83,3.7,3.7,0,0,0-1.53-.31h-.78S307.17,144.16,307.12,144.16Z"/><path class="cls-2" d="M332.32,148.08a9,9,0,0,1-9,9h-2.26V151.6h2.26a3.43,3.43,0,0,0,2.49-1,3.35,3.35,0,0,0,1-2.48v-7.66h5.44ZM328,164.4h-5.41V159H328Z"/><path class="cls-2" d="M342.1,149.28a4.56,4.56,0,0,0-1.89,1.38,3.7,3.7,0,0,0-.62,2h2.77V157h-5.3v-4.13a6.14,6.14,0,0,1,.27-1.77,7,7,0,0,1,.77-1.67,6.3,6.3,0,0,1,1.23-1.41,6.08,6.08,0,0,1,1.65-1Z"/><path class="cls-2" d="M367.92,149.33a3.16,3.16,0,0,0,.83,1.23,3.39,3.39,0,0,0,2.48,1h1.17V157h-1.17a8.68,8.68,0,0,1-6.12-2.4A8.58,8.58,0,0,1,359,157h-.45a9.14,9.14,0,0,1-8.43-7.28,3.72,3.72,0,0,0-.53.45,3.48,3.48,0,0,0-1.11,2.61v10.43h-5.42V152.82a9,9,0,0,1,2.69-6.47,8.8,8.8,0,0,1,5.33-2.61,9.25,9.25,0,0,1,1.53-2,8.72,8.72,0,0,1,6.13-2.64H359a9,9,0,0,1,9,9v.05A9.74,9.74,0,0,1,367.92,149.33Zm-9.09,2.27H359a3.43,3.43,0,0,0,2.49-1,3.37,3.37,0,0,0,1-2.45v-.05a3.37,3.37,0,0,0-1-2.48,3.43,3.43,0,0,0-2.49-1h-.18a3.5,3.5,0,0,0-2.21,1,3.43,3.43,0,0,0-1,2.5,3.58,3.58,0,0,0,3.22,3.52Z"/><path class="cls-2" d="M379.77,157h-8.06V151.6h8.06Z"/><path class="cls-2" d="M386.83,157h-8.07V151.6h8.07Z"/><path class="cls-2" d="M393.89,157h-8.07V151.6h8.07Z"/><path class="cls-2" d="M406.87,139.13a8.83,8.83,0,0,1,3.21.81,9.74,9.74,0,0,1,2.68,1.84,9.34,9.34,0,0,1,1.91,2.84,8.72,8.72,0,0,1,.69,3.46,8.54,8.54,0,0,1-.71,3.49,8.73,8.73,0,0,1-1.93,2.83,9.11,9.11,0,0,1-5.9,2.64H393V151.6h1.55c0-.19-.07-.38-.1-.58a6.86,6.86,0,0,1-.08-1,6.73,6.73,0,0,1,.56-2.7,7.28,7.28,0,0,1,1.54-2.24,6.85,6.85,0,0,1,.56-.5h-2.27l2.4-5.41ZM399.51,150a1.92,1.92,0,0,0,.16.79,2.23,2.23,0,0,0,1.07,1.06,2,2,0,0,0,.8.16,1.84,1.84,0,0,0,.73-.16,3,3,0,0,0,.66-.44,1.91,1.91,0,0,0,.53-1.41,2.17,2.17,0,0,0-.13-.76,1.26,1.26,0,0,0-.4-.58,2,2,0,0,0-1.39-.59,1.85,1.85,0,0,0-1.43.59,1.75,1.75,0,0,0-.44.58A1.82,1.82,0,0,0,399.51,150Zm5.9-5.82a5.9,5.9,0,0,1,.58.39,6.11,6.11,0,0,1,.52.49,7,7,0,0,1,1.54,2.24,6.73,6.73,0,0,1,.56,2.7,4.93,4.93,0,0,1,0,.69c0,.22-.05.43-.09.64a1.66,1.66,0,0,0,.31-.22,3.7,3.7,0,0,1,.29-.24,3.6,3.6,0,0,0,.84-1.22,4.19,4.19,0,0,0,.29-1.55,4.12,4.12,0,0,0-.29-1.53,3.6,3.6,0,0,0-.84-1.22,4.34,4.34,0,0,0-1.28-.83,3.7,3.7,0,0,0-1.53-.31h-.78S405.46,144.16,405.41,144.16Z"/><path class="cls-2" d="M417.17,132.06h5.41V147l0,.92a3.65,3.65,0,0,0,1.09,2.61,3.55,3.55,0,0,0,2.62,1.09h1.23V157h-1.23a9.17,9.17,0,0,1-9.15-9.14Z"/><path class="cls-2" d="M438.06,148.08a9,9,0,0,1-9,9h-2.26V151.6h2.26a3.47,3.47,0,0,0,2.5-1,3.39,3.39,0,0,0,1-2.48v-7.66h5.44Zm-4.32,16.32h-5.41V159h5.41Z"/></svg>